<svg width="512" height="512" xmlns="http://www.w3.org/2000/svg" xml:space="preserve" version="1.1">

 <g>
  <title>Layer 1</title>
  <g id="svg_1">
   <g id="svg_2">
    <path id="svg_3" fill="#FFFFFF" d="m256,176c-44.113,0 -80,35.888 -80,80s35.888,80 80,80s80,-35.888 80,-80s-35.887,-80 -80,-80zm0,120c-22.056,0 -40,-17.944 -40,-40c0,-22.056 17.944,-40 40,-40c22.056,0 40,17.944 40,40c0,22.056 -17.944,40 -40,40z"/>
   </g>
  </g>
  <g id="svg_4">
   <g id="svg_5">
    <path id="svg_6" fill="#FFFFFF" d="m502.164,315.637l-51.788,-39.683c1.456,-13.725 1.367,-27.02 0,-39.907l51.788,-39.683c8.029,-6.152 10.201,-17.33 5.059,-26.041l-50.152,-84.978c-4.996,-8.466 -15.405,-12.046 -24.553,-8.443l-61.445,24.2c-11.222,-8.031 -23.233,-14.836 -35.904,-20.341l-9.224,-63.63c-1.426,-9.835 -9.856,-17.131 -19.793,-17.131l-100.304,0c-9.937,0 -18.367,7.296 -19.792,17.132l-9.224,63.63c-12.671,5.506 -24.682,12.31 -35.904,20.341l-61.445,-24.2c-9.15,-3.604 -19.557,-0.023 -24.553,8.443l-50.153,84.977c-5.141,8.711 -2.969,19.889 5.059,26.041l51.789,39.682c-1.456,13.725 -1.367,27.02 0,39.907l-51.788,39.683c-8.029,6.152 -10.201,17.33 -5.059,26.041l50.151,84.978c4.996,8.466 15.404,12.046 24.553,8.443l61.446,-24.199c11.22,8.029 23.232,14.835 35.903,20.34l9.224,63.63c1.426,9.835 9.856,17.131 19.793,17.131l100.304,0c9.937,0 18.367,-7.296 19.793,-17.13l9.224,-63.63c12.671,-5.505 24.683,-12.31 35.903,-20.34l61.446,24.199c9.149,3.603 19.557,0.022 24.553,-8.443l50.152,-84.978c5.141,-8.711 2.969,-19.889 -5.059,-26.041zm-70.867,75.989l-56.047,-22.073c-6.716,-2.643 -14.328,-1.467 -19.93,3.077c-13.523,10.973 -28.702,19.557 -45.114,25.515c-6.928,2.515 -11.91,8.636 -12.968,15.93l-8.396,57.925l-65.685,0l-8.395,-57.925c-1.058,-7.294 -6.04,-13.415 -12.968,-15.93c-16.412,-5.959 -31.591,-14.543 -45.114,-25.515c-5.602,-4.544 -13.218,-5.72 -19.93,-3.077l-56.047,22.073l-32.471,-55.019l46.96,-35.984c5.902,-4.523 8.809,-11.946 7.545,-19.274c-2.944,-17.075 -2.847,-34.187 0,-50.699c1.264,-7.328 -1.643,-14.752 -7.545,-19.274l-46.96,-35.984l32.471,-55.019l56.047,22.073c6.715,2.645 14.328,1.467 19.93,-3.077c13.524,-10.972 28.703,-19.556 45.114,-25.514c6.928,-2.515 11.91,-8.636 12.968,-15.93l8.396,-57.925l65.685,0l8.395,57.925c1.058,7.294 6.04,13.415 12.968,15.93c16.411,5.958 31.59,14.542 45.114,25.514c5.602,4.545 13.217,5.721 19.93,3.077l56.047,-22.073l32.47,55.019l-46.96,35.984c-5.902,4.523 -8.809,11.946 -7.545,19.274c2.944,17.075 2.847,34.187 0,50.699c-1.264,7.328 1.643,14.752 7.545,19.274l46.96,35.984l-32.47,55.019z"/>
   </g>
  </g>
  <g id="svg_7"/>
  <g id="svg_8"/>
  <g id="svg_9"/>
  <g id="svg_10"/>
  <g id="svg_11"/>
  <g id="svg_12"/>
  <g id="svg_13"/>
  <g id="svg_14"/>
  <g id="svg_15"/>
  <g id="svg_16"/>
  <g id="svg_17"/>
  <g id="svg_18"/>
  <g id="svg_19"/>
  <g id="svg_20"/>
  <g id="svg_21"/>
  <ellipse stroke="#000" stroke-width="0" ry="110" rx="110" id="svg_23" cy="401" cx="398" fill="#D80027"/>
 </g>
</svg>