<?xml version="1.0" encoding="iso-8859-1"?>
<!-- Generator: Adobe Illustrator 19.0.0, SVG Export Plug-In . SVG Version: 6.00 Build 0)  -->
<svg xmlns="http://www.w3.org/2000/svg"  version="1.1" id="Capa_1" x="0px" y="0px" viewBox="0 0 512 512" style="enable-background:new 0 0 512 512;" xml:space="preserve" width="512px" height="512px">
<g>
	<g>
		<path d="M256,0c-81.023,0-146.941,65.917-146.941,146.941S174.977,293.882,256,293.882s146.941-65.917,146.941-146.941    C402.941,65.917,337.023,0,256,0z M256,253.882c-58.968,0-106.941-47.973-106.941-106.941C149.059,87.973,197.032,40,256,40    s106.941,47.974,106.941,106.941C362.941,205.908,314.968,253.882,256,253.882z" fill="#FFFFFF"/>
	</g>
</g>
<g>
	<g>
		<path d="M263.362,313.361h-14.723C150.137,313.361,70,393.498,70,492c0,5.304,2.107,10.391,5.857,14.142    C79.608,509.893,84.695,512,90,512h332c11.046,0,20-8.954,20-20C442,393.498,361.863,313.361,263.362,313.361z M111.438,472    c9.721-67.006,67.543-118.639,137.2-118.639h14.723c69.657,0,127.479,51.633,137.2,118.639H111.438z" fill="#FFFFFF"/>
	</g>
</g>
<g>
</g>
<g>
</g>
<g>
</g>
<g>
</g>
<g>
</g>
<g>
</g>
<g>
</g>
<g>
</g>
<g>
</g>
<g>
</g>
<g>
</g>
<g>
</g>
<g>
</g>
<g>
</g>
<g>
</g>
</svg>
