<?xml version="1.0" encoding="iso-8859-1"?>
<!-- Generator: Adobe Illustrator 19.0.0, SVG Export Plug-In . SVG Version: 6.00 Build 0)  -->
<svg xmlns="http://www.w3.org/2000/svg"  version="1.1" id="Capa_1" x="0px" y="0px" viewBox="0 0 512 512" style="enable-background:new 0 0 512 512;" xml:space="preserve" width="512px" height="512px">
<g>
	<g>
		<path d="M479.549,32.452c-43.271-43.27-113.674-43.268-156.943,0L5.858,349.2c-3.714,3.712-5.817,8.799-5.851,14.006    c0,0.046-0.007,0.091-0.007,0.137v128.655C0,503.045,8.955,512,20.002,512h128.655c5.2,0,10.363-2.078,14.144-5.859    c10.316-10.316,311.602-311.603,316.748-316.749C522.817,146.124,522.817,75.721,479.549,32.452z M40.004,471.996v-60.363    l60.364,60.363H40.004z M148.657,463.711L48.289,363.343l249.919-249.919l36.04,36.04L199.923,283.79    c-7.812,7.811-7.812,20.475,0,28.287c7.811,7.811,20.476,7.812,28.288,0l134.325-134.325l36.04,36.039L148.657,463.711z     M451.261,161.106l-24.398,24.398L326.496,85.137l24.399-24.398c27.672-27.672,72.697-27.67,100.367,0    C478.933,88.41,478.933,133.435,451.261,161.106z" fill="#edc628"/>
	</g>
</g>
<g>
</g>
<g>
</g>
<g>
</g>
<g>
</g>
<g>
</g>
<g>
</g>
<g>
</g>
<g>
</g>
<g>
</g>
<g>
</g>
<g>
</g>
<g>
</g>
<g>
</g>
<g>
</g>
<g>
</g>
</svg>
