<?xml version="1.0" encoding="iso-8859-1"?>
<!-- Generator: Adobe Illustrator 19.0.0, SVG Export Plug-In . SVG Version: 6.00 Build 0)  -->
<svg xmlns="http://www.w3.org/2000/svg"  version="1.1" id="Capa_1" x="0px" y="0px" viewBox="0 0 512 512" style="enable-background:new 0 0 512 512;" xml:space="preserve" width="512px" height="512px">
<g>
	<g>
		<path d="M256,0C114.497,0,0,114.507,0,256c0,141.503,114.507,256,256,256c141.503,0,256-114.507,256-256    C512,114.497,397.492,0,256,0z M256,472c-119.393,0-216-96.615-216-216c0-119.393,96.615-216,216-216    c119.393,0,216,96.615,216,216C472,375.393,375.384,472,256,472z" fill="#FFFFFF"/>
	</g>
</g>
<g>
	<g>
		<path d="M266,128.878h-70c-11.046,0-20,8.954-20,20c0,11.046,8.954,20,20,20h70c16.542,0,30,13.458,30,30s-13.458,30-30,30h-20    c-11.046,0-20,8.954-20,20v28.792c0,11.046,8.954,20,20,20s20-8.954,20-20v-8.792c38.598,0,70-31.402,70-70    C336,160.28,304.598,128.878,266,128.878z" fill="#FFFFFF"/>
	</g>
</g>
<g>
	<g>
		<circle cx="246" cy="349.16" r="27" fill="#FFFFFF"/>
	</g>
</g>
<g>
</g>
<g>
</g>
<g>
</g>
<g>
</g>
<g>
</g>
<g>
</g>
<g>
</g>
<g>
</g>
<g>
</g>
<g>
</g>
<g>
</g>
<g>
</g>
<g>
</g>
<g>
</g>
<g>
</g>
</svg>
